<?xml version="1.0" encoding="UTF-8" standalone="no"?>
<!DOCTYPE svg PUBLIC "-//W3C//DTD SVG 1.1//EN"
 "http://www.w3.org/Graphics/SVG/1.1/DTD/svg11.dtd">
<!-- Generated by graphviz version 2.42.4 (0)
 -->
<!-- Title: G Pages: 1 -->
<svg width="4895pt" height="236pt"
 viewBox="0.00 0.00 4894.50 235.74" xmlns="http://www.w3.org/2000/svg" xmlns:xlink="http://www.w3.org/1999/xlink">
<g id="graph0" class="graph" transform="scale(1 1) rotate(0) translate(4 231.74)">
<title>G</title>
<polygon fill="white" stroke="transparent" points="-4,4 -4,-231.74 4890.5,-231.74 4890.5,4 -4,4"/>
<!-- County:Los Angeles -->
<g id="node1" class="node">
<title>County:Los Angeles</title>
<ellipse fill="none" stroke="black" cx="807.54" cy="-200.87" rx="72.25" ry="26.74"/>
<text text-anchor="middle" x="807.54" y="-204.67" font-family="Times,serif" font-size="14.00">County</text>
<text text-anchor="middle" x="807.54" y="-189.67" font-family="Times,serif" font-size="14.00">Los Angeles</text>
</g>
<!-- State:California -->
<g id="node2" class="node">
<title>State:California</title>
<ellipse fill="none" stroke="black" cx="958.54" cy="-200.87" rx="60.62" ry="26.74"/>
<text text-anchor="middle" x="958.54" y="-204.67" font-family="Times,serif" font-size="14.00">State</text>
<text text-anchor="middle" x="958.54" y="-189.67" font-family="Times,serif" font-size="14.00">California</text>
</g>
<!-- County -->
<g id="node3" class="node">
<title>County</title>
<ellipse fill="none" stroke="black" cx="1067.54" cy="-105" rx="44.39" ry="18"/>
<text text-anchor="middle" x="1067.54" y="-101.3" font-family="Times,serif" font-size="14.00">County</text>
</g>
<!-- State -->
<g id="node4" class="node">
<title>State</title>
<ellipse fill="none" stroke="black" cx="648.54" cy="-18" rx="36" ry="18"/>
<text text-anchor="middle" x="648.54" y="-14.3" font-family="Times,serif" font-size="14.00">State</text>
</g>
<!-- County&#45;&gt;State -->
<g id="edge1" class="edge">
<title>County:Los Angeles&#45;&gt;State:California</title>
<path fill="none" stroke="black" d="M1024.83,-99.95C977.57,-94.92 899.4,-85.01 833.54,-69 813.47,-64.12 809.36,-59.83 789.54,-54 756.57,-44.31 718.75,-35.02 690.58,-28.45"/>
<polygon fill="black" stroke="black" points="691.2,-25 680.67,-26.15 689.63,-31.82 691.2,-25"/>
<text text-anchor="middle" x="869.04" y="-57.8" font-family="Times,serif" font-size="14.00">IN_STATE</text>
</g>
<!-- County&#45;&gt;State -->
<g id="edge5" class="edge">
<title>County:San Diego&#45;&gt;State:California</title>
<path fill="none" stroke="black" d="M1027.16,-97.59C998.55,-92.18 959.69,-83.03 927.54,-69 916.36,-64.12 915.98,-58.26 904.54,-54 834.4,-27.85 746.93,-20.92 694.52,-19.26"/>
<polygon fill="black" stroke="black" points="694.61,-15.76 684.52,-19 694.42,-22.76 694.61,-15.76"/>
<text text-anchor="middle" x="963.04" y="-57.8" font-family="Times,serif" font-size="14.00">IN_STATE</text>
</g>
<!-- County&#45;&gt;State -->
<g id="edge9" class="edge">
<title>County:Harris&#45;&gt;State:Texas</title>
<path fill="none" stroke="black" d="M1047.7,-88.8C1029.33,-74.87 1004.04,-56.09 998.54,-54 944.01,-33.26 775.9,-23.98 694.13,-20.61"/>
<polygon fill="black" stroke="black" points="694.27,-17.11 684.13,-20.21 693.98,-24.11 694.27,-17.11"/>
<text text-anchor="middle" x="1057.04" y="-57.8" font-family="Times,serif" font-size="14.00">IN_STATE</text>
</g>
<!-- County&#45;&gt;State -->
<g id="edge13" class="edge">
<title>County:Dallas&#45;&gt;State:Texas</title>
<path fill="none" stroke="black" d="M1084.38,-88.19C1093.66,-77.6 1101.63,-63.84 1092.54,-54 1065.94,-25.22 802.98,-20.07 694.73,-19.18"/>
<polygon fill="black" stroke="black" points="694.47,-15.68 684.45,-19.1 694.42,-22.68 694.47,-15.68"/>
<text text-anchor="middle" x="1131.04" y="-57.8" font-family="Times,serif" font-size="14.00">IN_STATE</text>
</g>
<!-- County&#45;&gt;State -->
<g id="edge17" class="edge">
<title>County:New York&#45;&gt;State:New York</title>
<path fill="none" stroke="black" d="M1108.6,-98.11C1146.03,-91.12 1192.4,-77.37 1170.54,-54 1138.4,-19.63 816.3,-17.97 694.69,-18.58"/>
<polygon fill="black" stroke="black" points="694.56,-15.09 684.58,-18.64 694.6,-22.09 694.56,-15.09"/>
<text text-anchor="middle" x="1211.04" y="-57.8" font-family="Times,serif" font-size="14.00">IN_STATE</text>
</g>
<!-- County&#45;&gt;State -->
<g id="edge19" class="edge">
<title>County:Kings&#45;&gt;State:New York</title>
<path fill="none" stroke="black" d="M1111.88,-104.82C1178.48,-104.68 1292.3,-98.26 1250.54,-54 1231.53,-33.85 832.16,-23.09 694.61,-19.97"/>
<polygon fill="black" stroke="black" points="694.48,-16.47 684.41,-19.74 694.32,-23.46 694.48,-16.47"/>
<text text-anchor="middle" x="1294.04" y="-57.8" font-family="Times,serif" font-size="14.00">IN_STATE</text>
</g>
<!-- City:Los Angeles -->
<g id="node5" class="node">
<title>City:Los Angeles</title>
<ellipse fill="none" stroke="black" cx="1187.54" cy="-200.87" rx="72.25" ry="26.74"/>
<text text-anchor="middle" x="1187.54" y="-204.67" font-family="Times,serif" font-size="14.00">City</text>
<text text-anchor="middle" x="1187.54" y="-189.67" font-family="Times,serif" font-size="14.00">Los Angeles</text>
</g>
<!-- City -->
<g id="node6" class="node">
<title>City</title>
<ellipse fill="none" stroke="black" cx="1067.54" cy="-200.87" rx="29.8" ry="18"/>
<text text-anchor="middle" x="1067.54" y="-197.17" font-family="Times,serif" font-size="14.00">City</text>
</g>
<!-- City&#45;&gt;County -->
<g id="edge2" class="edge">
<title>City:Los Angeles&#45;&gt;County:Los Angeles</title>
<path fill="none" stroke="black" d="M1050.76,-185.76C1044.24,-181.11 1036.45,-176.5 1028.54,-174 992.46,-162.6 373.95,-183.11 347.54,-156 342.89,-151.22 342.94,-145.83 347.54,-141 370.41,-116.99 849.04,-108.75 1013.01,-106.62"/>
<polygon fill="black" stroke="black" points="1013.39,-110.11 1023.34,-106.49 1013.3,-103.12 1013.39,-110.11"/>
<text text-anchor="middle" x="391.54" y="-144.8" font-family="Times,serif" font-size="14.00">IN_COUNTY</text>
</g>
<!-- City&#45;&gt;County -->
<g id="edge3" class="edge">
<title>City:Long Beach&#45;&gt;County:Los Angeles</title>
<path fill="none" stroke="black" d="M1050.76,-185.78C1044.23,-181.14 1036.44,-176.52 1028.54,-174 998.36,-164.38 480.59,-178.75 458.54,-156 453.9,-151.21 453.97,-145.85 458.54,-141 477.45,-120.98 867.7,-110.39 1013.35,-107.12"/>
<polygon fill="black" stroke="black" points="1013.49,-110.62 1023.41,-106.9 1013.33,-103.62 1013.49,-110.62"/>
<text text-anchor="middle" x="502.54" y="-144.8" font-family="Times,serif" font-size="14.00">IN_COUNTY</text>
</g>
<!-- City&#45;&gt;County -->
<g id="edge4" class="edge">
<title>City:Glendale&#45;&gt;County:Los Angeles</title>
<path fill="none" stroke="black" d="M1050.74,-185.81C1044.22,-181.17 1036.43,-176.55 1028.54,-174 979.97,-158.31 604.92,-192.79 569.54,-156 564.92,-151.19 565,-145.88 569.54,-141 599.26,-109.12 889.7,-105.73 1012.83,-105.74"/>
<polygon fill="black" stroke="black" points="1013.15,-109.24 1023.15,-105.75 1013.16,-102.24 1013.15,-109.24"/>
<text text-anchor="middle" x="613.54" y="-144.8" font-family="Times,serif" font-size="14.00">IN_COUNTY</text>
</g>
<!-- City&#45;&gt;County -->
<g id="edge6" class="edge">
<title>City:San Diego&#45;&gt;County:San Diego</title>
<path fill="none" stroke="black" d="M1050.73,-185.87C1044.2,-181.23 1036.41,-176.6 1028.54,-174 954.77,-149.66 628.15,-198.35 680.54,-141 702.54,-116.92 912.09,-109.25 1013.32,-106.94"/>
<polygon fill="black" stroke="black" points="1013.43,-110.44 1023.36,-106.72 1013.28,-103.44 1013.43,-110.44"/>
<text text-anchor="middle" x="724.54" y="-144.8" font-family="Times,serif" font-size="14.00">IN_COUNTY</text>
</g>
<!-- City&#45;&gt;County -->
<g id="edge7" class="edge">
<title>City:Chula Vista&#45;&gt;County:San Diego</title>
<path fill="none" stroke="black" d="M1050.69,-185.97C1044.16,-181.35 1036.38,-176.69 1028.54,-174 1003.57,-165.42 809.5,-175.37 791.54,-156 787.01,-151.11 787.14,-146 791.54,-141 805.97,-124.62 937.61,-113.93 1013.76,-109.05"/>
<polygon fill="black" stroke="black" points="1014.36,-112.52 1024.12,-108.4 1013.92,-105.53 1014.36,-112.52"/>
<text text-anchor="middle" x="835.54" y="-144.8" font-family="Times,serif" font-size="14.00">IN_COUNTY</text>
</g>
<!-- City&#45;&gt;County -->
<g id="edge8" class="edge">
<title>City:Oceanside&#45;&gt;County:San Diego</title>
<path fill="none" stroke="black" d="M1050.21,-185.98C1043.75,-181.47 1036.14,-176.89 1028.54,-174 974.44,-153.4 866.1,-185.98 902.54,-141 916.49,-123.78 971.63,-114.69 1014.37,-110.13"/>
<polygon fill="black" stroke="black" points="1014.79,-113.61 1024.39,-109.12 1014.09,-106.64 1014.79,-113.61"/>
<text text-anchor="middle" x="946.54" y="-144.8" font-family="Times,serif" font-size="14.00">IN_COUNTY</text>
</g>
<!-- City&#45;&gt;County -->
<g id="edge10" class="edge">
<title>City:Houston&#45;&gt;County:Harris</title>
<path fill="none" stroke="black" d="M1048.3,-186.94C1034.36,-177.11 1017.33,-163.96 1013.54,-156 1010.68,-149.98 1010.36,-146.86 1013.54,-141 1017.17,-134.32 1022.69,-128.72 1028.84,-124.09"/>
<polygon fill="black" stroke="black" points="1031.07,-126.81 1037.48,-118.38 1027.21,-120.97 1031.07,-126.81"/>
<text text-anchor="middle" x="1057.54" y="-144.8" font-family="Times,serif" font-size="14.00">IN_COUNTY</text>
</g>
<!-- City&#45;&gt;County -->
<g id="edge11" class="edge">
<title>City:Pasadena&#45;&gt;County:Harris</title>
<path fill="none" stroke="black" d="M1082.97,-185.14C1090.1,-177.26 1097.8,-166.94 1101.54,-156 1103.7,-149.69 1104.05,-147.18 1101.54,-141 1099.81,-136.73 1097.28,-132.7 1094.37,-129"/>
<polygon fill="black" stroke="black" points="1096.86,-126.52 1087.56,-121.44 1091.66,-131.21 1096.86,-126.52"/>
<text text-anchor="middle" x="1146.54" y="-144.8" font-family="Times,serif" font-size="14.00">IN_COUNTY</text>
</g>
<!-- City&#45;&gt;County -->
<g id="edge12" class="edge">
<title>City:Baytown&#45;&gt;County:Harris</title>
<path fill="none" stroke="black" d="M1084.98,-186.23C1091.45,-181.75 1099.04,-177.12 1106.54,-174 1145.12,-157.98 1219.85,-174.23 1194.54,-141 1185.07,-128.56 1149.5,-119.43 1118.4,-113.62"/>
<polygon fill="black" stroke="black" points="1118.96,-110.16 1108.5,-111.85 1117.73,-117.05 1118.96,-110.16"/>
<text text-anchor="middle" x="1243.54" y="-144.8" font-family="Times,serif" font-size="14.00">IN_COUNTY</text>
</g>
<!-- City&#45;&gt;County -->
<g id="edge14" class="edge">
<title>City:Dallas&#45;&gt;County:Dallas</title>
<path fill="none" stroke="black" d="M1084.81,-185.79C1091.26,-181.26 1098.89,-176.72 1106.54,-174 1185.24,-146.04 1345.85,-204.45 1291.54,-141 1270.18,-116.03 1181.39,-108.75 1122.22,-106.7"/>
<polygon fill="black" stroke="black" points="1122,-103.19 1111.9,-106.38 1121.79,-110.19 1122,-103.19"/>
<text text-anchor="middle" x="1344.54" y="-144.8" font-family="Times,serif" font-size="14.00">IN_COUNTY</text>
</g>
<!-- City&#45;&gt;County -->
<g id="edge15" class="edge">
<title>City:Irving&#45;&gt;County:Dallas</title>
<path fill="none" stroke="black" d="M1084.37,-185.91C1090.9,-181.28 1098.69,-176.64 1106.54,-174 1167.19,-153.62 1435.29,-188.6 1392.54,-141 1374.81,-121.25 1209.41,-111.67 1121.65,-107.95"/>
<polygon fill="black" stroke="black" points="1121.74,-104.45 1111.61,-107.53 1121.46,-111.44 1121.74,-104.45"/>
<text text-anchor="middle" x="1440.54" y="-144.8" font-family="Times,serif" font-size="14.00">IN_COUNTY</text>
</g>
<!-- City&#45;&gt;County -->
<g id="edge16" class="edge">
<title>City:Garland&#45;&gt;County:Dallas</title>
<path fill="none" stroke="black" d="M1084.35,-185.85C1090.88,-181.21 1098.67,-176.58 1106.54,-174 1187.52,-147.49 1546.24,-203.7 1488.54,-141 1464.19,-114.53 1229.94,-108.08 1121.79,-106.5"/>
<polygon fill="black" stroke="black" points="1121.77,-103 1111.72,-106.37 1121.68,-110 1121.77,-103"/>
<text text-anchor="middle" x="1538.54" y="-144.8" font-family="Times,serif" font-size="14.00">IN_COUNTY</text>
</g>
<!-- City&#45;&gt;County -->
<g id="edge18" class="edge">
<title>City:New York City&#45;&gt;County:New York</title>
<path fill="none" stroke="black" d="M1084.34,-185.81C1090.86,-181.16 1098.65,-176.54 1106.54,-174 1131.94,-165.82 1568.03,-175.22 1586.54,-156 1591.17,-151.2 1591.1,-145.87 1586.54,-141 1555.35,-107.63 1249.32,-105.15 1122.33,-105.57"/>
<polygon fill="black" stroke="black" points="1122.04,-102.07 1112.06,-105.61 1122.07,-109.07 1122.04,-102.07"/>
<text text-anchor="middle" x="1633.54" y="-144.8" font-family="Times,serif" font-size="14.00">IN_COUNTY</text>
</g>
<!-- City&#45;&gt;County -->
<g id="edge20" class="edge">
<title>City:Brooklyn&#45;&gt;County:Kings</title>
<path fill="none" stroke="black" d="M1084.33,-185.78C1090.85,-181.13 1098.65,-176.52 1106.54,-174 1136.99,-164.3 1659.3,-178.95 1681.54,-156 1686.18,-151.21 1686.12,-145.85 1681.54,-141 1662.46,-120.8 1268.1,-110.3 1121.66,-107.09"/>
<polygon fill="black" stroke="black" points="1121.63,-103.59 1111.56,-106.87 1121.48,-110.59 1121.63,-103.59"/>
<text text-anchor="middle" x="1728.54" y="-144.8" font-family="Times,serif" font-size="14.00">IN_COUNTY</text>
</g>
<!-- City:Long Beach -->
<g id="node7" class="node">
<title>City:Long Beach</title>
<ellipse fill="none" stroke="black" cx="1348.54" cy="-200.87" rx="70.92" ry="26.74"/>
<text text-anchor="middle" x="1348.54" y="-204.67" font-family="Times,serif" font-size="14.00">City</text>
<text text-anchor="middle" x="1348.54" y="-189.67" font-family="Times,serif" font-size="14.00">Long Beach</text>
</g>
<!-- City:Glendale -->
<g id="node8" class="node">
<title>City:Glendale</title>
<ellipse fill="none" stroke="black" cx="1493.54" cy="-200.87" rx="56.64" ry="26.74"/>
<text text-anchor="middle" x="1493.54" y="-204.67" font-family="Times,serif" font-size="14.00">City</text>
<text text-anchor="middle" x="1493.54" y="-189.67" font-family="Times,serif" font-size="14.00">Glendale</text>
</g>
<!-- County:San Diego -->
<g id="node9" class="node">
<title>County:San Diego</title>
<ellipse fill="none" stroke="black" cx="1631.54" cy="-200.87" rx="62.87" ry="26.74"/>
<text text-anchor="middle" x="1631.54" y="-204.67" font-family="Times,serif" font-size="14.00">County</text>
<text text-anchor="middle" x="1631.54" y="-189.67" font-family="Times,serif" font-size="14.00">San Diego</text>
</g>
<!-- City:San Diego -->
<g id="node10" class="node">
<title>City:San Diego</title>
<ellipse fill="none" stroke="black" cx="1775.54" cy="-200.87" rx="62.87" ry="26.74"/>
<text text-anchor="middle" x="1775.54" y="-204.67" font-family="Times,serif" font-size="14.00">City</text>
<text text-anchor="middle" x="1775.54" y="-189.67" font-family="Times,serif" font-size="14.00">San Diego</text>
</g>
<!-- City:Chula Vista -->
<g id="node11" class="node">
<title>City:Chula Vista</title>
<ellipse fill="none" stroke="black" cx="1925.54" cy="-200.87" rx="69.09" ry="26.74"/>
<text text-anchor="middle" x="1925.54" y="-204.67" font-family="Times,serif" font-size="14.00">City</text>
<text text-anchor="middle" x="1925.54" y="-189.67" font-family="Times,serif" font-size="14.00">Chula Vista</text>
</g>
<!-- City:Oceanside -->
<g id="node12" class="node">
<title>City:Oceanside</title>
<ellipse fill="none" stroke="black" cx="2076.54" cy="-200.87" rx="63.78" ry="26.74"/>
<text text-anchor="middle" x="2076.54" y="-204.67" font-family="Times,serif" font-size="14.00">City</text>
<text text-anchor="middle" x="2076.54" y="-189.67" font-family="Times,serif" font-size="14.00">Oceanside</text>
</g>
<!-- County:Harris -->
<g id="node13" class="node">
<title>County:Harris</title>
<ellipse fill="none" stroke="black" cx="2206.54" cy="-200.87" rx="48.17" ry="26.74"/>
<text text-anchor="middle" x="2206.54" y="-204.67" font-family="Times,serif" font-size="14.00">County</text>
<text text-anchor="middle" x="2206.54" y="-189.67" font-family="Times,serif" font-size="14.00">Harris</text>
</g>
<!-- State:Texas -->
<g id="node14" class="node">
<title>State:Texas</title>
<ellipse fill="none" stroke="black" cx="2312.54" cy="-200.87" rx="40.11" ry="26.74"/>
<text text-anchor="middle" x="2312.54" y="-204.67" font-family="Times,serif" font-size="14.00">State</text>
<text text-anchor="middle" x="2312.54" y="-189.67" font-family="Times,serif" font-size="14.00">Texas</text>
</g>
<!-- City:Houston -->
<g id="node15" class="node">
<title>City:Houston</title>
<ellipse fill="none" stroke="black" cx="2425.54" cy="-200.87" rx="54.39" ry="26.74"/>
<text text-anchor="middle" x="2425.54" y="-204.67" font-family="Times,serif" font-size="14.00">City</text>
<text text-anchor="middle" x="2425.54" y="-189.67" font-family="Times,serif" font-size="14.00">Houston</text>
</g>
<!-- City:Pasadena -->
<g id="node16" class="node">
<title>City:Pasadena</title>
<ellipse fill="none" stroke="black" cx="2557.54" cy="-200.87" rx="59.29" ry="26.74"/>
<text text-anchor="middle" x="2557.54" y="-204.67" font-family="Times,serif" font-size="14.00">City</text>
<text text-anchor="middle" x="2557.54" y="-189.67" font-family="Times,serif" font-size="14.00">Pasadena</text>
</g>
<!-- City:Baytown -->
<g id="node17" class="node">
<title>City:Baytown</title>
<ellipse fill="none" stroke="black" cx="2690.54" cy="-200.87" rx="55.72" ry="26.74"/>
<text text-anchor="middle" x="2690.54" y="-204.67" font-family="Times,serif" font-size="14.00">City</text>
<text text-anchor="middle" x="2690.54" y="-189.67" font-family="Times,serif" font-size="14.00">Baytown</text>
</g>
<!-- County:Dallas -->
<g id="node18" class="node">
<title>County:Dallas</title>
<ellipse fill="none" stroke="black" cx="2812.54" cy="-200.87" rx="48.17" ry="26.74"/>
<text text-anchor="middle" x="2812.54" y="-204.67" font-family="Times,serif" font-size="14.00">County</text>
<text text-anchor="middle" x="2812.54" y="-189.67" font-family="Times,serif" font-size="14.00">Dallas</text>
</g>
<!-- City:Dallas -->
<g id="node19" class="node">
<title>City:Dallas</title>
<ellipse fill="none" stroke="black" cx="2921.54" cy="-200.87" rx="43.27" ry="26.74"/>
<text text-anchor="middle" x="2921.54" y="-204.67" font-family="Times,serif" font-size="14.00">City</text>
<text text-anchor="middle" x="2921.54" y="-189.67" font-family="Times,serif" font-size="14.00">Dallas</text>
</g>
<!-- City:Irving -->
<g id="node20" class="node">
<title>City:Irving</title>
<ellipse fill="none" stroke="black" cx="3024.54" cy="-200.87" rx="41.94" ry="26.74"/>
<text text-anchor="middle" x="3024.54" y="-204.67" font-family="Times,serif" font-size="14.00">City</text>
<text text-anchor="middle" x="3024.54" y="-189.67" font-family="Times,serif" font-size="14.00">Irving</text>
</g>
<!-- City:Garland -->
<g id="node21" class="node">
<title>City:Garland</title>
<ellipse fill="none" stroke="black" cx="3136.54" cy="-200.87" rx="52.15" ry="26.74"/>
<text text-anchor="middle" x="3136.54" y="-204.67" font-family="Times,serif" font-size="14.00">City</text>
<text text-anchor="middle" x="3136.54" y="-189.67" font-family="Times,serif" font-size="14.00">Garland</text>
</g>
<!-- County:New York -->
<g id="node22" class="node">
<title>County:New York</title>
<ellipse fill="none" stroke="black" cx="3266.54" cy="-200.87" rx="60.21" ry="26.74"/>
<text text-anchor="middle" x="3266.54" y="-204.67" font-family="Times,serif" font-size="14.00">County</text>
<text text-anchor="middle" x="3266.54" y="-189.67" font-family="Times,serif" font-size="14.00">New York</text>
</g>
<!-- State:New York -->
<g id="node23" class="node">
<title>State:New York</title>
<ellipse fill="none" stroke="black" cx="3404.54" cy="-200.87" rx="60.21" ry="26.74"/>
<text text-anchor="middle" x="3404.54" y="-204.67" font-family="Times,serif" font-size="14.00">State</text>
<text text-anchor="middle" x="3404.54" y="-189.67" font-family="Times,serif" font-size="14.00">New York</text>
</g>
<!-- City:New York City -->
<g id="node24" class="node">
<title>City:New York City</title>
<ellipse fill="none" stroke="black" cx="3566.54" cy="-200.87" rx="84.29" ry="26.74"/>
<text text-anchor="middle" x="3566.54" y="-204.67" font-family="Times,serif" font-size="14.00">City</text>
<text text-anchor="middle" x="3566.54" y="-189.67" font-family="Times,serif" font-size="14.00">New York City</text>
</g>
<!-- County:Kings -->
<g id="node25" class="node">
<title>County:Kings</title>
<ellipse fill="none" stroke="black" cx="3716.54" cy="-200.87" rx="48.17" ry="26.74"/>
<text text-anchor="middle" x="3716.54" y="-204.67" font-family="Times,serif" font-size="14.00">County</text>
<text text-anchor="middle" x="3716.54" y="-189.67" font-family="Times,serif" font-size="14.00">Kings</text>
</g>
<!-- City:Brooklyn -->
<g id="node26" class="node">
<title>City:Brooklyn</title>
<ellipse fill="none" stroke="black" cx="3839.54" cy="-200.87" rx="56.64" ry="26.74"/>
<text text-anchor="middle" x="3839.54" y="-204.67" font-family="Times,serif" font-size="14.00">City</text>
<text text-anchor="middle" x="3839.54" y="-189.67" font-family="Times,serif" font-size="14.00">Brooklyn</text>
</g>
<!-- Person:Alice -->
<g id="node27" class="node">
<title>Person:Alice</title>
<ellipse fill="none" stroke="black" cx="3960.54" cy="-200.87" rx="45.92" ry="26.74"/>
<text text-anchor="middle" x="3960.54" y="-204.67" font-family="Times,serif" font-size="14.00">Person</text>
<text text-anchor="middle" x="3960.54" y="-189.67" font-family="Times,serif" font-size="14.00">Alice</text>
</g>
<!-- Person -->
<g id="node28" class="node">
<title>Person</title>
<ellipse fill="none" stroke="black" cx="372.54" cy="-105" rx="42.49" ry="18"/>
<text text-anchor="middle" x="372.54" y="-101.3" font-family="Times,serif" font-size="14.00">Person</text>
</g>
<!-- Person&#45;&gt;State -->
<g id="edge21" class="edge">
<title>Person:Alice&#45;&gt;State:California</title>
<path fill="none" stroke="black" d="M330.03,-104.53C224.11,-105.15 -39.89,-101.97 5.54,-54 26.03,-32.37 458.22,-22.49 602.28,-19.8"/>
<polygon fill="black" stroke="black" points="602.61,-23.29 612.54,-19.61 602.48,-16.29 602.61,-23.29"/>
<text text-anchor="middle" x="40.04" y="-57.8" font-family="Times,serif" font-size="14.00">LIVES_IN</text>
</g>
<!-- Person&#45;&gt;State -->
<g id="edge22" class="edge">
<title>Person:Bob&#45;&gt;State:California</title>
<path fill="none" stroke="black" d="M330.57,-102.82C245.77,-99.7 64.79,-88.9 97.54,-54 131.76,-17.54 476.17,-17.26 602.45,-18.41"/>
<polygon fill="black" stroke="black" points="602.54,-21.91 612.57,-18.51 602.61,-14.91 602.54,-21.91"/>
<text text-anchor="middle" x="132.04" y="-57.8" font-family="Times,serif" font-size="14.00">LIVES_IN</text>
</g>
<!-- Person&#45;&gt;State -->
<g id="edge23" class="edge">
<title>Person:Carol&#45;&gt;State:California</title>
<path fill="none" stroke="black" d="M330.17,-104.91C264,-105 147.79,-99.05 189.54,-54 217.2,-24.15 491.4,-19.64 602.33,-19.05"/>
<polygon fill="black" stroke="black" points="602.56,-22.55 612.54,-19 602.52,-15.55 602.56,-22.55"/>
<text text-anchor="middle" x="224.04" y="-57.8" font-family="Times,serif" font-size="14.00">LIVES_IN</text>
</g>
<!-- Person&#45;&gt;State -->
<g id="edge24" class="edge">
<title>Person:Dave&#45;&gt;State:Texas</title>
<path fill="none" stroke="black" d="M334.63,-96.97C301.79,-89.27 262.32,-75.14 281.54,-54 302.79,-30.63 509.38,-22.49 602.93,-19.99"/>
<polygon fill="black" stroke="black" points="603.05,-23.49 612.96,-19.73 602.87,-16.49 603.05,-23.49"/>
<text text-anchor="middle" x="316.04" y="-57.8" font-family="Times,serif" font-size="14.00">LIVES_IN</text>
</g>
<!-- Person&#45;&gt;State -->
<g id="edge25" class="edge">
<title>Person:Eve&#45;&gt;State:Texas</title>
<path fill="none" stroke="black" d="M367.71,-86.65C365.86,-75.95 365.77,-62.65 373.54,-54 388.62,-37.23 529.04,-26.25 603.17,-21.58"/>
<polygon fill="black" stroke="black" points="603.41,-25.07 613.17,-20.96 602.98,-18.08 603.41,-25.07"/>
<text text-anchor="middle" x="408.04" y="-57.8" font-family="Times,serif" font-size="14.00">LIVES_IN</text>
</g>
<!-- Person&#45;&gt;State -->
<g id="edge26" class="edge">
<title>Person:Frank&#45;&gt;State:Texas</title>
<path fill="none" stroke="black" d="M399.85,-91.25C412.95,-84.9 428.75,-76.91 442.54,-69 453.13,-62.93 454.23,-58.57 465.54,-54 510.37,-35.91 565.23,-27.02 603.13,-22.74"/>
<polygon fill="black" stroke="black" points="603.77,-26.19 613.34,-21.66 603.03,-19.23 603.77,-26.19"/>
<text text-anchor="middle" x="500.04" y="-57.8" font-family="Times,serif" font-size="14.00">LIVES_IN</text>
</g>
<!-- Person&#45;&gt;State -->
<g id="edge27" class="edge">
<title>Person:Grace&#45;&gt;State:New York</title>
<path fill="none" stroke="black" d="M413.05,-99.42C446.59,-94.66 494.98,-85.51 534.54,-69 545.81,-64.3 546.68,-59.55 557.54,-54 574.02,-45.58 593.02,-37.97 609.38,-32.01"/>
<polygon fill="black" stroke="black" points="610.93,-35.17 619.18,-28.52 608.58,-28.58 610.93,-35.17"/>
<text text-anchor="middle" x="592.04" y="-57.8" font-family="Times,serif" font-size="14.00">LIVES_IN</text>
</g>
<!-- Person&#45;&gt;State -->
<g id="edge28" class="edge">
<title>Person:Heidi&#45;&gt;State:New York</title>
<path fill="none" stroke="black" d="M414.8,-103.07C478.21,-100.88 594.03,-93.54 626.54,-69 634.13,-63.27 639.15,-54.36 642.45,-45.64"/>
<polygon fill="black" stroke="black" points="645.8,-46.64 645.49,-36.05 639.13,-44.53 645.8,-46.64"/>
<text text-anchor="middle" x="673.04" y="-57.8" font-family="Times,serif" font-size="14.00">LIVES_IN</text>
</g>
<!-- Person&#45;&gt;State -->
<g id="edge29" class="edge">
<title>Person:Ivan&#45;&gt;State:New York</title>
<path fill="none" stroke="black" d="M414.49,-102.75C500.83,-99.75 691.98,-90.69 711.54,-69 723.98,-55.22 706.51,-42.26 686.84,-33"/>
<polygon fill="black" stroke="black" points="688,-29.69 677.44,-28.88 685.19,-36.1 688,-29.69"/>
<text text-anchor="middle" x="751.04" y="-57.8" font-family="Times,serif" font-size="14.00">LIVES_IN</text>
</g>
<!-- Person:Bob -->
<g id="node29" class="node">
<title>Person:Bob</title>
<ellipse fill="none" stroke="black" cx="4070.54" cy="-200.87" rx="45.92" ry="26.74"/>
<text text-anchor="middle" x="4070.54" y="-204.67" font-family="Times,serif" font-size="14.00">Person</text>
<text text-anchor="middle" x="4070.54" y="-189.67" font-family="Times,serif" font-size="14.00">Bob</text>
</g>
<!-- Person:Carol -->
<g id="node30" class="node">
<title>Person:Carol</title>
<ellipse fill="none" stroke="black" cx="4180.54" cy="-200.87" rx="45.92" ry="26.74"/>
<text text-anchor="middle" x="4180.54" y="-204.67" font-family="Times,serif" font-size="14.00">Person</text>
<text text-anchor="middle" x="4180.54" y="-189.67" font-family="Times,serif" font-size="14.00">Carol</text>
</g>
<!-- Person:Dave -->
<g id="node31" class="node">
<title>Person:Dave</title>
<ellipse fill="none" stroke="black" cx="4290.54" cy="-200.87" rx="45.92" ry="26.74"/>
<text text-anchor="middle" x="4290.54" y="-204.67" font-family="Times,serif" font-size="14.00">Person</text>
<text text-anchor="middle" x="4290.54" y="-189.67" font-family="Times,serif" font-size="14.00">Dave</text>
</g>
<!-- Person:Eve -->
<g id="node32" class="node">
<title>Person:Eve</title>
<ellipse fill="none" stroke="black" cx="4400.54" cy="-200.87" rx="45.92" ry="26.74"/>
<text text-anchor="middle" x="4400.54" y="-204.67" font-family="Times,serif" font-size="14.00">Person</text>
<text text-anchor="middle" x="4400.54" y="-189.67" font-family="Times,serif" font-size="14.00">Eve</text>
</g>
<!-- Person:Frank -->
<g id="node33" class="node">
<title>Person:Frank</title>
<ellipse fill="none" stroke="black" cx="4510.54" cy="-200.87" rx="45.92" ry="26.74"/>
<text text-anchor="middle" x="4510.54" y="-204.67" font-family="Times,serif" font-size="14.00">Person</text>
<text text-anchor="middle" x="4510.54" y="-189.67" font-family="Times,serif" font-size="14.00">Frank</text>
</g>
<!-- Person:Grace -->
<g id="node34" class="node">
<title>Person:Grace</title>
<ellipse fill="none" stroke="black" cx="4620.54" cy="-200.87" rx="45.92" ry="26.74"/>
<text text-anchor="middle" x="4620.54" y="-204.67" font-family="Times,serif" font-size="14.00">Person</text>
<text text-anchor="middle" x="4620.54" y="-189.67" font-family="Times,serif" font-size="14.00">Grace</text>
</g>
<!-- Person:Heidi -->
<g id="node35" class="node">
<title>Person:Heidi</title>
<ellipse fill="none" stroke="black" cx="4730.54" cy="-200.87" rx="45.92" ry="26.74"/>
<text text-anchor="middle" x="4730.54" y="-204.67" font-family="Times,serif" font-size="14.00">Person</text>
<text text-anchor="middle" x="4730.54" y="-189.67" font-family="Times,serif" font-size="14.00">Heidi</text>
</g>
<!-- Person:Ivan -->
<g id="node36" class="node">
<title>Person:Ivan</title>
<ellipse fill="none" stroke="black" cx="4840.54" cy="-200.87" rx="45.92" ry="26.74"/>
<text text-anchor="middle" x="4840.54" y="-204.67" font-family="Times,serif" font-size="14.00">Person</text>
<text text-anchor="middle" x="4840.54" y="-189.67" font-family="Times,serif" font-size="14.00">Ivan</text>
</g>
</g>
</svg>
